<svg id="Layer_1" data-name="Layer 1" xmlns="http://www.w3.org/2000/svg" viewBox="0 0 32.6 35.38"><defs><style>.cls-1{fill:white;}</style></defs><path class="cls-1" d="M17.46,14.6c.85,0,1.28.29,1.28.88a.94.94,0,0,1-.22.69,9.91,9.91,0,0,0-.93,1.45c-.48.82-1,1.88-1.58,3.16a15,15,0,0,0-1.12,3.28,1.86,1.86,0,0,0-.05.47q0,.93.51.93A2.22,2.22,0,0,0,16.54,25a8.38,8.38,0,0,0,1.23-1q.53-.54,1.05-1.11c.34-.38.54-.6.61-.66a.51.51,0,0,1,.3-.08q.32,0,.39.48a8.42,8.42,0,0,1,.07,1,1.67,1.67,0,0,1-.11.72,8.19,8.19,0,0,1-2.14,2.31,5,5,0,0,1-3,1.34,2.36,2.36,0,0,1-2-.82,3,3,0,0,1-.64-1.83,4.33,4.33,0,0,1,.34-1.75,14.52,14.52,0,0,1-3.2,3.07,5.7,5.7,0,0,1-2.95,1.26,2.65,2.65,0,0,1-1.87-.68,3.13,3.13,0,0,1-.92-2.38,7.53,7.53,0,0,1,.68-3.06A10.91,10.91,0,0,1,6.17,19a18.41,18.41,0,0,1,2.44-2.31,8.63,8.63,0,0,1,5.14-2.18,3.19,3.19,0,0,1,1.48.3,1.35,1.35,0,0,1,.72.76,2.59,2.59,0,0,1,.68-.77A1.79,1.79,0,0,1,17.46,14.6Zm-2.23,1.87q-2.88,0-6,3.19a14.07,14.07,0,0,0-2,2.74,5.8,5.8,0,0,0-.92,2.18c0,.4.12.59.34.59s1.19-.62,2.62-1.86a24.05,24.05,0,0,0,2.86-2.73Q12.93,19.61,15.23,16.47Z" transform="translate(-3.7 -2.31)"/><path class="cls-1" d="M17.71,22l0-.23a2,2,0,0,1,0-.47c0-.1.21-.18.35-.37a2.73,2.73,0,0,1,.3-.37l.27-.25.29-.26a1.62,1.62,0,0,1,.48-.32l.47-.15a15.36,15.36,0,0,1,1.76-.47q4.29-7.15,6.88-11.2t3-4.47a3.05,3.05,0,0,1,1.28-.76,4.06,4.06,0,0,1,1.36-.33c.28,0,.43.13.43.38a1.15,1.15,0,0,1-.11.4c-.08.17-.69,1.16-1.84,3q-6.41,10-8.2,13l.42.15c2.59-.48,4-.72,4.05-.72a3.77,3.77,0,0,1,.81.23,6.67,6.67,0,0,0,.85.26q.39.06.39.63t-.36.63c-.19,0-.64.14-1.37.33L27.44,21a3.43,3.43,0,0,1,.89,2.26,7.26,7.26,0,0,1-1,3.15,22.52,22.52,0,0,1-2.71,3.87,47.27,47.27,0,0,1-3.45,3.61,23.74,23.74,0,0,1-3.47,2.75,5.52,5.52,0,0,1-2.46,1,2.44,2.44,0,0,1-1.43-.43A1.43,1.43,0,0,1,13.13,36a6.67,6.67,0,0,1,.34-2A19.3,19.3,0,0,1,14.22,32c.27-.63.73-1.52,1.38-2.68s2-3.4,3.76-6.44a3.88,3.88,0,0,1-.72.08,1,1,0,0,1-.47-.11.6.6,0,0,1-.3-.31A1.46,1.46,0,0,1,17.71,22Zm4.73,7.25a17,17,0,0,0,2.11-3.07,5.89,5.89,0,0,0,.86-2.62,2.23,2.23,0,0,0-1-1.79l-1.87.42-.88,1.48-1,1.66c-.25.42-.58,1-1,1.65s-.72,1.23-1,1.69-.56,1-.88,1.56-.58,1.07-.79,1.48-.4.81-.59,1.21a5.23,5.23,0,0,0-.56,1.53c0,.24.07.36.19.36A3.59,3.59,0,0,0,17.5,34,22.13,22.13,0,0,0,19.87,32C20.75,31.09,21.61,30.18,22.44,29.21Z" transform="translate(-3.7 -2.31)"/><path class="cls-1" d="M33.33,25.38a2.3,2.3,0,0,1,1.58-.8c.93,0,1.39.38,1.39,1.15a2.72,2.72,0,0,1-.79,1.82,2.34,2.34,0,0,1-1.78.88,1.07,1.07,0,0,1-1.21-1.22A2.49,2.49,0,0,1,33.33,25.38Z" transform="translate(-3.7 -2.31)"/><path class="cls-1" d="M17.69,21.73s-.26-1.49,1.71-2" transform="translate(-3.7 -2.31)"/></svg>